<?xml version="1.0" standalone="no"?>
<!DOCTYPE svg PUBLIC "-//W3C//DTD SVG 20010904//EN"
 "http://www.w3.org/TR/2001/REC-SVG-20010904/DTD/svg10.dtd">
<svg version="1.0" xmlns="http://www.w3.org/2000/svg"
 width="488.000000pt" height="488.000000pt" viewBox="0 0 488.000000 488.000000"
 preserveAspectRatio="xMidYMid meet">
<metadata>
Created by potrace 1.14, written by Peter Selinger 2001-2017
</metadata>
<g transform="translate(0.000000,488.000000) scale(0.100000,-0.100000)"
fill="#000000" stroke="none">
<path d="M3518 4121 c-54 -18 -106 -54 -132 -94 -24 -36 -27 -50 -24 -100 4
-46 10 -63 34 -88 39 -42 82 -59 146 -59 93 1 162 45 200 128 34 76 7 152 -71
191 -44 23 -116 33 -153 22z"/>
<path d="M2095 3923 c-208 -4 -542 -24 -639 -38 -92 -14 -124 -31 -112 -60 5
-14 14 -16 49 -10 23 4 409 9 857 11 l815 5 -165 -103 c-91 -57 -187 -117
-214 -133 -69 -41 -102 -62 -203 -124 -49 -30 -239 -145 -423 -256 -184 -111
-410 -248 -501 -303 -92 -55 -223 -133 -290 -173 -68 -39 -160 -93 -204 -119
-103 -61 -438 -255 -490 -285 -22 -12 -112 -59 -200 -103 -124 -63 -176 -83
-229 -92 -117 -18 -159 -54 -135 -111 23 -58 65 -62 177 -20 97 37 200 48 602
62 453 17 823 5 1215 -36 91 -10 91 -10 50 -58 -161 -189 -318 -414 -395 -567
-98 -195 -84 -293 37 -275 43 6 56 15 121 83 67 70 155 197 194 282 9 19 50
118 91 220 113 277 114 280 134 280 10 0 68 -9 128 -20 187 -34 180 -33 194
-16 8 9 11 26 7 40 -7 29 -31 38 -181 69 l-105 23 22 30 c13 17 61 72 107 123
47 50 91 101 99 112 14 20 15 19 39 -22 28 -50 34 -55 86 -70 34 -9 48 -7 110
18 181 71 284 183 294 318 5 72 -6 97 -65 142 -48 36 -84 41 -128 18 -16 -8
-37 -15 -46 -15 -59 0 -190 -100 -228 -174 -16 -31 -236 -257 -228 -234 48
127 117 352 118 383 3 73 0 84 -26 101 -23 16 -28 16 -59 1 -31 -15 -129 -128
-227 -262 -20 -27 -50 -63 -67 -79 l-31 -30 0 37 c0 35 44 173 61 192 13 13
11 59 -3 73 -7 7 -24 12 -39 12 -37 0 -72 -44 -98 -122 -23 -70 -44 -208 -35
-235 14 -43 28 -62 55 -73 60 -25 122 14 230 146 34 41 63 73 66 71 8 -9 -29
-132 -85 -285 l-57 -154 -35 6 c-255 42 -600 61 -1108 61 -286 -1 -455 3 -445
8 376 197 1559 902 2316 1381 395 250 422 268 425 299 7 59 28 57 -547 55
-289 -1 -584 -3 -656 -5z m792 -1286 l22 -12 -38 -60 c-21 -33 -56 -77 -78
-98 -38 -36 -109 -71 -125 -60 -16 9 -7 61 18 111 49 98 141 153 201 119z
m-942 -1018 c-51 -122 -153 -287 -206 -334 l-22 -20 8 25 c19 61 231 408 242
396 2 -2 -8 -32 -22 -67z"/>
<path d="M3240 2855 c-43 -63 -144 -274 -174 -365 -14 -41 -28 -98 -31 -126
-6 -44 -4 -54 17 -79 46 -53 92 -22 251 170 55 66 101 121 102 123 1 1 2 -43
1 -99 -1 -98 0 -101 27 -125 39 -33 106 -33 166 1 23 14 44 25 45 25 1 0 0
-15 -2 -33 -5 -48 33 -93 72 -83 38 9 103 72 204 196 47 58 89 109 93 114 4 4
6 -38 6 -94 -2 -100 -2 -102 26 -126 39 -33 106 -33 166 1 53 31 57 31 65 3 8
-29 33 -59 70 -83 48 -32 146 -26 228 13 144 70 286 211 279 280 -2 27 -41 8
-151 -74 -121 -91 -179 -123 -220 -124 -22 0 -15 10 55 79 92 91 104 114 105
194 0 69 -19 111 -60 132 -101 52 -245 -51 -306 -220 -18 -50 -30 -66 -70 -93
-63 -44 -80 -40 -77 20 2 25 9 72 18 104 21 81 19 130 -5 154 -46 46 -102 18
-230 -115 -56 -58 -76 -73 -78 -60 -5 22 20 88 69 187 47 93 49 124 13 140
-24 11 -29 10 -50 -17 -25 -32 -164 -299 -165 -319 0 -12 -99 -95 -137 -115
-55 -29 -65 13 -32 138 11 41 20 89 20 106 0 39 -32 75 -68 75 -41 0 -79 -28
-177 -128 -49 -51 -90 -90 -92 -88 -8 7 34 119 73 198 45 90 53 125 32 146
-23 23 -47 12 -78 -33z m1254 -277 c-18 -37 -63 -88 -77 -88 -25 0 29 103 72
138 24 19 27 -8 5 -50z"/>
<path d="M889 1064 c-17 -21 -3 -46 23 -42 31 4 37 43 9 51 -11 3 -25 -1 -32
-9z"/>
<path d="M1060 1040 c0 -38 -1 -39 -29 -34 -68 14 -110 -96 -61 -159 18 -23
27 -26 80 -25 l60 1 0 128 0 129 -25 0 c-22 0 -25 -4 -25 -40z m-5 -125 c0
-33 -4 -41 -21 -43 -26 -4 -40 38 -24 69 19 35 45 19 45 -26z"/>
<path d="M1802 953 l3 -128 28 -3 27 -3 0 130 0 131 -30 0 -31 0 3 -127z"/>
<path d="M2491 1071 c-7 -5 -11 -17 -9 -27 4 -25 51 -26 56 -2 4 20 -29 40
-47 29z"/>
<path d="M3080 1040 c0 -39 -1 -39 -30 -34 -25 5 -35 1 -59 -25 -27 -29 -30
-30 -36 -12 -7 25 -55 44 -88 36 -36 -10 -58 -37 -64 -84 -5 -35 -2 -44 25
-71 21 -21 40 -30 62 -30 39 0 70 16 70 36 0 20 -24 28 -47 16 -12 -7 -25 -7
-36 -1 -31 18 -18 26 38 26 44 -1 55 -4 55 -17 0 -35 42 -58 103 -57 l57 0 0
128 0 129 -25 0 c-22 0 -25 -4 -25 -40z m-166 -95 c4 -11 -2 -15 -24 -15 -29
0 -38 9 -23 23 12 12 41 7 47 -8z m155 1 c20 -24 10 -70 -16 -74 -25 -4 -38
26 -29 64 7 27 27 31 45 10z"/>
<path d="M3637 1072 c-12 -2 -17 -11 -15 -25 4 -27 45 -36 54 -12 8 21 -15 43
-39 37z"/>
<path d="M141 1051 c-14 -24 -81 -211 -81 -222 0 -5 11 -9 25 -9 17 0 29 9 39
28 21 41 70 43 91 2 15 -30 47 -40 60 -20 6 9 -52 176 -76 222 -13 24 -46 23
-58 -1z m43 -93 c9 -35 8 -38 -14 -38 -11 0 -20 3 -20 8 0 19 13 52 20 52 4 0
10 -10 14 -22z"/>
<path d="M369 1068 c-1 -5 -1 -114 0 -180 1 -66 2 -68 26 -68 23 0 25 4 25 46
0 38 3 45 17 42 10 -2 28 -22 41 -46 17 -30 30 -42 46 -42 35 0 36 8 9 57 -16
27 -22 48 -16 52 21 13 34 53 28 83 -9 37 -53 58 -125 58 -27 0 -50 -1 -51 -2z
m120 -72 c4 -24 -23 -46 -49 -39 -14 4 -20 14 -20 35 0 27 2 29 32 26 23 -2
34 -9 37 -22z"/>
<path d="M1563 1054 c-3 -8 -1 -20 5 -26 16 -16 47 -5 50 20 3 18 -1 22 -23
22 -14 0 -28 -7 -32 -16z"/>
<path d="M2007 1003 c-68 -179 -66 -174 -52 -179 25 -10 50 1 53 24 2 12 6 22
10 23 4 0 22 2 40 5 30 4 35 1 45 -26 12 -31 43 -40 63 -20 8 8 19 7 37 -1 31
-14 96 -4 104 16 4 12 10 11 30 -5 48 -38 133 -16 133 34 0 29 -26 52 -67 61
-18 3 -33 11 -33 16 0 12 37 12 45 -1 8 -12 42 -13 49 -1 12 19 -7 41 -43 52
-31 9 -43 8 -69 -5 -18 -9 -32 -21 -32 -27 0 -6 -9 -1 -19 12 -14 18 -29 24
-59 24 -48 0 -72 -18 -72 -55 0 -33 16 -48 58 -56 18 -4 32 -13 32 -20 0 -18
-25 -18 -44 1 -18 18 -53 20 -58 3 -2 -6 -20 33 -40 88 -31 87 -38 99 -61 102
-22 3 -27 -4 -50 -65z m73 -75 c0 -5 -11 -8 -24 -8 -24 0 -24 2 -14 31 l11 32
13 -24 c7 -13 13 -27 14 -31z m180 21 c0 -7 12 -10 30 -7 22 3 31 0 35 -12 6
-18 45 -40 70 -40 17 0 20 -16 4 -25 -5 -4 -18 0 -28 9 -10 9 -27 16 -38 16
-12 0 -23 6 -26 14 -3 8 -24 20 -46 27 -43 13 -55 29 -21 29 11 0 20 -5 20
-11z"/>
<path d="M3230 945 l0 -126 108 3 107 3 0 90 c0 89 0 90 -25 90 -24 0 -25 -3
-28 -67 l-3 -68 -49 0 -50 0 -1 83 c-2 115 -1 112 -31 115 l-28 3 0 -126z"/>
<path d="M3394 1055 c-4 -9 -2 -21 4 -27 16 -16 47 -5 47 17 0 26 -42 34 -51
10z"/>
<path d="M4167 1059 c-63 -37 -62 -194 2 -229 58 -31 136 5 149 69 20 95 -22
171 -95 171 -21 0 -46 -5 -56 -11z m87 -61 c29 -41 17 -115 -20 -124 -47 -12
-72 41 -53 110 8 29 15 36 34 36 13 0 31 -10 39 -22z"/>
<path d="M4656 1061 c-4 -5 -3 -17 0 -26 10 -24 48 -15 52 13 3 18 -1 22 -22
22 -14 0 -27 -4 -30 -9z"/>
<path d="M1470 1030 c0 -11 -4 -20 -10 -20 -5 0 -10 -7 -10 -15 0 -13 -4 -13
-26 2 -21 13 -32 15 -55 6 -18 -7 -29 -8 -29 -1 0 5 -10 8 -22 6 -16 -2 -24
-12 -28 -33 -6 -29 -6 -29 -14 -7 -15 45 -95 52 -131 12 -9 -10 -19 -37 -22
-59 -5 -35 -2 -44 26 -72 28 -28 37 -31 73 -26 46 6 63 19 55 41 -5 13 -15 15
-47 10 -30 -5 -40 -3 -40 7 0 10 14 14 50 15 l50 0 0 -39 c0 -36 2 -38 28 -35
26 3 27 6 32 68 4 50 9 66 22 68 19 4 31 -39 26 -95 -3 -35 -1 -38 25 -41 l27
-3 0 70 c0 87 16 94 22 10 3 -37 10 -64 18 -69 8 -5 39 -8 70 -7 l55 2 0 90 0
90 -30 1 c-52 2 -55 4 -55 24 0 16 -7 20 -30 20 -23 0 -30 -4 -30 -20z m90
-115 c0 -44 -3 -53 -15 -49 -10 4 -15 20 -15 49 0 37 5 47 28 54 1 1 2 -24 2
-54z m-330 30 c0 -9 -9 -15 -25 -15 -24 0 -32 10 -18 23 12 13 43 7 43 -8z"/>
<path d="M2720 1033 c0 -28 -34 -45 -66 -32 -58 21 -113 -14 -100 -65 5 -22
43 -46 71 -46 8 0 15 -7 15 -15 0 -20 -24 -19 -41 1 -7 9 -22 14 -35 11 -22
-4 -23 0 -26 57 -3 58 -4 61 -31 64 l-28 3 3 -93 c3 -92 3 -93 28 -93 18 0 26
6 28 23 l3 23 20 -26 c38 -48 139 -24 139 33 0 22 -30 52 -51 52 -9 0 -24 7
-35 15 -19 14 -19 14 3 15 12 0 25 -4 28 -10 3 -5 17 -10 31 -10 13 0 24 5 24
10 0 6 5 10 10 10 6 0 10 -26 10 -59 0 -66 13 -84 57 -79 35 4 45 37 14 45
-17 4 -21 13 -21 49 0 32 4 44 15 44 9 0 15 9 15 25 0 16 -6 25 -15 25 -10 0
-15 7 -13 18 2 12 -5 18 -24 20 -22 3 -28 -1 -28 -15z"/>
<path d="M602 1000 c-29 -12 -55 -73 -47 -111 12 -55 84 -86 136 -59 20 11 25
35 9 45 -5 3 -17 2 -26 -3 -21 -12 -51 -4 -58 15 -5 12 4 14 47 12 l52 -3 -1
38 c-1 21 -8 44 -15 52 -19 18 -69 26 -97 14z m66 -57 c2 -9 -7 -13 -27 -13
-30 0 -39 9 -24 24 11 10 46 3 51 -11z"/>
<path d="M760 998 c-35 -19 -40 -70 -8 -92 12 -9 30 -16 40 -16 24 0 33 -19
12 -27 -10 -4 -22 0 -29 10 -15 21 -55 22 -55 2 0 -27 38 -55 76 -55 27 0 43
7 64 30 l29 31 -2 -28 c-2 -24 2 -28 23 -28 25 0 25 1 28 93 l3 93 -28 -3
c-26 -3 -28 -7 -29 -48 -2 -74 -3 -78 -15 -58 -5 10 -28 22 -49 28 -42 11 -54
30 -20 30 11 0 20 -4 20 -10 0 -5 11 -10 25 -10 18 0 25 5 25 19 0 38 -66 61
-110 39z"/>
<path d="M1674 1000 c-27 -11 -37 -27 -30 -45 4 -11 11 -12 36 -3 23 8 35 7
43 -1 8 -8 4 -11 -15 -11 -32 0 -78 -35 -78 -61 0 -38 33 -57 99 -57 l61 0 0
73 c0 68 -2 75 -26 94 -28 22 -55 25 -90 11z m56 -115 c0 -8 -9 -15 -20 -15
-20 0 -26 11 -13 23 12 13 33 7 33 -8z"/>
<path d="M3460 983 c49 -163 50 -164 77 -161 23 3 30 13 54 83 l27 80 3 -80
c4 -73 6 -80 26 -83 18 -3 23 3 28 30 3 18 5 60 3 93 l-3 60 -54 0 -54 0 -15
-50 -15 -50 -15 53 c-13 47 -17 52 -43 52 -26 0 -27 -2 -19 -27z"/>
<path d="M3694 996 c-3 -7 -4 -48 -2 -92 3 -77 4 -79 28 -79 24 0 25 4 30 65
4 57 8 65 25 65 18 0 20 -8 23 -67 3 -65 4 -68 27 -68 24 0 25 2 25 79 0 59
-4 82 -15 91 -22 18 -135 22 -141 6z"/>
<path d="M3903 1000 c-29 -12 -43 -40 -43 -90 0 -54 37 -94 81 -88 16 3 29 1
29 -3 0 -13 -30 -18 -54 -9 -23 8 -46 -3 -46 -23 0 -14 64 -35 93 -30 52 10
65 42 64 151 l-2 97 -50 1 c-27 1 -60 -2 -72 -6z m62 -85 c0 -30 -4 -41 -17
-43 -26 -5 -44 39 -28 67 19 36 45 22 45 -24z"/>
<path d="M4380 1003 c-22 -8 -50 -34 -50 -46 0 -6 18 -7 45 -4 53 8 71 -8 19
-16 -47 -8 -64 -23 -64 -58 0 -45 23 -59 92 -56 l61 2 -2 75 c-1 42 -8 80 -14
87 -15 15 -66 24 -87 16z m48 -115 c-5 -15 -48 -24 -48 -10 0 14 12 22 33 22
10 0 17 -5 15 -12z"/>
<path d="M4540 1003 c-23 -8 -40 -34 -40 -60 0 -23 42 -53 75 -53 8 0 15 -7
15 -15 0 -8 -6 -15 -14 -15 -7 0 -19 7 -26 15 -14 17 -46 20 -55 5 -12 -19 42
-60 80 -60 36 0 75 28 75 53 0 26 -31 55 -65 61 -19 4 -35 11 -35 16 0 13 37
13 45 0 8 -14 42 -13 51 2 4 6 -4 21 -20 35 -26 22 -54 27 -86 16z"/>
<path d="M4660 925 c0 -47 -1 -88 -2 -92 -2 -5 9 -9 25 -11 l27 -3 0 95 c0 96
0 96 -25 96 -25 0 -25 -1 -25 -85z"/>
<path d="M4765 998 c-56 -32 -41 -91 26 -105 16 -3 29 -12 29 -19 0 -19 -24
-18 -40 1 -14 17 -46 20 -55 5 -11 -18 42 -60 77 -60 97 0 105 95 11 115 -35
7 -43 19 -19 28 8 3 20 -1 26 -9 16 -18 60 -19 60 -1 0 37 -78 67 -115 45z"/>
</g>
</svg>
